<svg width="15" height="24" viewBox="0 0 15 24" fill="none" xmlns="http://www.w3.org/2000/svg">
<path d="M3 8H13V21H3V8Z" fill="white"/>
<path d="M9.74219 6.94531C10.5312 6.94531 11.2461 7.0625 11.8867 7.29688C12.5273 7.53125 13.0703 7.85156 13.5156 8.25781C13.9688 8.66406 14.3164 9.14062 14.5586 9.6875C14.8008 10.2266 14.9219 10.8008 14.9219 11.4102V18.5352C14.9219 19.1445 14.8008 19.7227 14.5586 20.2695C14.3164 20.8086 13.9688 21.2812 13.5156 21.6875C13.0703 22.0938 12.5273 22.4141 11.8867 22.6484C11.2461 22.8828 10.5312 23 9.74219 23H6.13281C5.34375 23 4.62891 22.8828 3.98828 22.6484C3.34766 22.4141 2.80078 22.0938 2.34766 21.6875C1.90234 21.2812 1.55859 20.8086 1.31641 20.2695C1.07422 19.7227 0.953125 19.1445 0.953125 18.5352V11.4102C0.953125 10.8008 1.07422 10.2266 1.31641 9.6875C1.55859 9.14062 1.90234 8.66406 2.34766 8.25781C2.80078 7.85156 3.34766 7.53125 3.98828 7.29688C4.62891 7.0625 5.34375 6.94531 6.13281 6.94531H9.74219ZM7.91406 8.1875L7.26953 8H5.73438L4.75 8.16406L4 8.91406V17.6914H5.25391V9.34766C5.36328 9.32422 5.46094 9.30859 5.54688 9.30078C5.63281 9.29297 5.72656 9.27344 5.82812 9.24219H7.16406C7.25 9.27344 7.33203 9.29297 7.41016 9.30078C7.49609 9.30859 7.58203 9.32422 7.66797 9.34766V14.3164H8.92188V9.34766L9.42578 9.24219H10.7734C10.8672 9.27344 10.9609 9.29297 11.0547 9.30078C11.1484 9.30859 11.2461 9.32422 11.3477 9.34766V17.6914H12.5898V8.91406L11.8516 8.16406L10.8672 8H9.33203L8.69922 8.1875L8.30078 8.99609L7.91406 8.1875Z" fill="url(#paint0_linear_722_374)"/>
<defs>
<linearGradient id="paint0_linear_722_374" x1="12" y1="9.5" x2="1" y2="20" gradientUnits="userSpaceOnUse">
<stop stop-color="#0097FB"/>
<stop offset="1" stop-color="#3399CC"/>
</linearGradient>
</defs>
</svg>
